<mxfile host="app.diagrams.net" agent="Mozilla/5.0 (Windows NT 10.0; Win64; x64) AppleWebKit/537.36 (KHTML, like Gecko) Chrome/135.0.0.0 Safari/537.36 Edg/135.0.0.0" version="26.2.12">
  <diagram name="第 1 页" id="5zjfJCYYvMDn6eL2v8_4">
    <mxGraphModel dx="2012" dy="1367" grid="0" gridSize="10" guides="1" tooltips="1" connect="1" arrows="1" fold="1" page="1" pageScale="1" pageWidth="827" pageHeight="1169" math="0" shadow="0">
      <root>
        <mxCell id="0" />
        <mxCell id="1" parent="0" />
        <mxCell id="u2x9763HItPCIMWwYsHF-1" value="" style="rounded=1;arcSize=5;whiteSpace=wrap;html=1;fillColor=light-dark(#E9F3F7,#1D293B);strokeColor=light-dark(#2770b0, #ededed);dashed=1;dashPattern=8 8;strokeWidth=3;" parent="1" vertex="1">
          <mxGeometry x="190" y="10" width="830" height="330" as="geometry" />
        </mxCell>
        <mxCell id="u2x9763HItPCIMWwYsHF-2" value="" style="group;strokeWidth=2;" parent="1" vertex="1" connectable="0">
          <mxGeometry x="514" y="104" width="200" height="250" as="geometry" />
        </mxCell>
        <mxCell id="u2x9763HItPCIMWwYsHF-3" value="" style="rounded=1;arcSize=12;whiteSpace=wrap;html=1;fillColor=light-dark(#deebf7, #1d293b);strokeColor=light-dark(#2a77bc, #5c79a3);strokeWidth=1.5;" parent="u2x9763HItPCIMWwYsHF-2" vertex="1">
          <mxGeometry x="10" width="190" height="200" as="geometry" />
        </mxCell>
        <mxCell id="u2x9763HItPCIMWwYsHF-4" value="" style="group" parent="u2x9763HItPCIMWwYsHF-2" vertex="1" connectable="0">
          <mxGeometry x="26.08695652173913" y="10" width="168.69565217391303" height="240" as="geometry" />
        </mxCell>
        <mxCell id="u2x9763HItPCIMWwYsHF-5" value="" style="group;fillColor=default;" parent="u2x9763HItPCIMWwYsHF-4" vertex="1" connectable="0">
          <mxGeometry width="156.52173913043478" height="30" as="geometry" />
        </mxCell>
        <mxCell id="u2x9763HItPCIMWwYsHF-6" value="" style="verticalLabelPosition=bottom;verticalAlign=top;html=1;shape=mxgraph.basic.rect;fillColor2=none;strokeWidth=1.5;size=20;indent=5;strokeColor=light-dark(#2770b0, #ededed);align=center;fontFamily=Helvetica;fontSize=12;fontColor=default;fillColor=none;pointerEvents=0;gradientColor=none;" parent="u2x9763HItPCIMWwYsHF-5" vertex="1">
          <mxGeometry width="156.52173913043478" height="30" as="geometry" />
        </mxCell>
        <mxCell id="u2x9763HItPCIMWwYsHF-7" value="意图推理" style="text;html=1;align=center;verticalAlign=middle;whiteSpace=wrap;rounded=0;" parent="u2x9763HItPCIMWwYsHF-5" vertex="1">
          <mxGeometry y="7.5" width="156.52173913043478" height="15" as="geometry" />
        </mxCell>
        <mxCell id="u2x9763HItPCIMWwYsHF-8" value="" style="group;strokeColor=light-dark(#2770b0, #ededed);strokeWidth=1;align=center;verticalAlign=top;fontFamily=Helvetica;fontSize=12;fontColor=default;fillColor=default;" parent="u2x9763HItPCIMWwYsHF-4" vertex="1" connectable="0">
          <mxGeometry y="70" width="156.52173913043478" height="30" as="geometry" />
        </mxCell>
        <mxCell id="u2x9763HItPCIMWwYsHF-9" value="" style="verticalLabelPosition=bottom;verticalAlign=top;html=1;shape=mxgraph.basic.rect;fillColor2=none;strokeWidth=1.5;size=20;indent=5;strokeColor=light-dark(#2770b0, #ededed);align=center;fontFamily=Helvetica;fontSize=12;fontColor=default;fillColor=none;pointerEvents=0;gradientColor=none;" parent="u2x9763HItPCIMWwYsHF-8" vertex="1">
          <mxGeometry width="156.52173913043478" height="30" as="geometry" />
        </mxCell>
        <mxCell id="u2x9763HItPCIMWwYsHF-10" value="交互列表" style="text;html=1;align=center;verticalAlign=middle;whiteSpace=wrap;rounded=0;fontFamily=Helvetica;fontSize=12;fontColor=default;" parent="u2x9763HItPCIMWwYsHF-8" vertex="1">
          <mxGeometry y="7.5" width="156.52173913043478" height="15" as="geometry" />
        </mxCell>
        <mxCell id="u2x9763HItPCIMWwYsHF-11" value="" style="group;pointerEvents=0;strokeWidth=1.5;align=center;verticalAlign=top;fontFamily=Helvetica;fontSize=12;fontColor=default;fillColor=default;gradientColor=none;" parent="u2x9763HItPCIMWwYsHF-4" vertex="1" connectable="0">
          <mxGeometry y="110" width="156.52173913043478" height="30" as="geometry" />
        </mxCell>
        <mxCell id="u2x9763HItPCIMWwYsHF-12" value="" style="verticalLabelPosition=bottom;verticalAlign=top;html=1;shape=mxgraph.basic.rect;fillColor2=none;strokeWidth=1.5;size=20;indent=5;strokeColor=light-dark(#2770b0, #ededed);align=center;fontFamily=Helvetica;fontSize=12;fontColor=default;fillColor=none;pointerEvents=0;gradientColor=none;" parent="u2x9763HItPCIMWwYsHF-11" vertex="1">
          <mxGeometry width="156.52173913043478" height="30" as="geometry" />
        </mxCell>
        <mxCell id="u2x9763HItPCIMWwYsHF-13" value="当前状态" style="text;html=1;align=center;verticalAlign=middle;whiteSpace=wrap;rounded=0;fontFamily=Helvetica;fontSize=12;fontColor=default;" parent="u2x9763HItPCIMWwYsHF-11" vertex="1">
          <mxGeometry y="7.5" width="156.52173913043478" height="15" as="geometry" />
        </mxCell>
        <mxCell id="u2x9763HItPCIMWwYsHF-14" value="" style="group;fillColor=default;" parent="u2x9763HItPCIMWwYsHF-4" vertex="1" connectable="0">
          <mxGeometry y="150" width="156.52173913043478" height="30" as="geometry" />
        </mxCell>
        <mxCell id="u2x9763HItPCIMWwYsHF-15" value="" style="verticalLabelPosition=bottom;verticalAlign=top;html=1;shape=mxgraph.basic.rect;fillColor2=none;strokeWidth=1.5;size=20;indent=5;strokeColor=light-dark(#2770b0, #ededed);align=center;fontFamily=Helvetica;fontSize=12;fontColor=default;fillColor=none;pointerEvents=0;gradientColor=none;" parent="u2x9763HItPCIMWwYsHF-14" vertex="1">
          <mxGeometry width="156.52173913043478" height="30" as="geometry" />
        </mxCell>
        <mxCell id="u2x9763HItPCIMWwYsHF-16" value="历史行为" style="text;html=1;align=center;verticalAlign=middle;whiteSpace=wrap;rounded=0;" parent="u2x9763HItPCIMWwYsHF-14" vertex="1">
          <mxGeometry y="7.5" width="156.52173913043478" height="15" as="geometry" />
        </mxCell>
        <mxCell id="u2x9763HItPCIMWwYsHF-17" value="&lt;b style=&quot;font-family: &amp;quot;Times New Roman&amp;quot;; font-size: 16px;&quot;&gt;评估提示（Prompt）&lt;/b&gt;" style="text;html=1;align=center;verticalAlign=middle;resizable=0;points=[];autosize=1;strokeColor=none;fillColor=none;" parent="u2x9763HItPCIMWwYsHF-4" vertex="1">
          <mxGeometry x="-0.004347826086956941" y="186" width="170" height="30" as="geometry" />
        </mxCell>
        <mxCell id="u2x9763HItPCIMWwYsHF-18" value="" style="shape=cross;whiteSpace=wrap;html=1;fillColor=light-dark(#2a77bc, #ededed);strokeColor=light-dark(#2a77bc, #ededed);aspect=fixed;" parent="u2x9763HItPCIMWwYsHF-4" vertex="1">
          <mxGeometry x="65.21739130434783" y="36" width="17.391304347826086" height="17.391304347826086" as="geometry" />
        </mxCell>
        <mxCell id="u2x9763HItPCIMWwYsHF-19" value="" style="group" parent="u2x9763HItPCIMWwYsHF-2" vertex="1" connectable="0">
          <mxGeometry x="52.17391304347826" y="-84" width="117.39130434782608" height="130" as="geometry" />
        </mxCell>
        <mxCell id="u2x9763HItPCIMWwYsHF-20" value="" style="group" parent="u2x9763HItPCIMWwYsHF-19" vertex="1" connectable="0">
          <mxGeometry y="60" width="113.04347826086956" height="60" as="geometry" />
        </mxCell>
        <mxCell id="u2x9763HItPCIMWwYsHF-21" value="&lt;font style=&quot;font-size: 10px;&quot; face=&quot;Times New Roman&quot;&gt;Human wants to have a coffee&lt;/font&gt;" style="whiteSpace=wrap;html=1;shape=mxgraph.basic.cloud_callout;strokeColor=light-dark(#4468ab, #319eff);fillColor=light-dark(#bdd7ee, #1e4a76);" parent="u2x9763HItPCIMWwYsHF-20" vertex="1">
          <mxGeometry x="4.3478260869565215" width="104.34782608695652" height="39.99999999999999" as="geometry" />
        </mxCell>
        <mxCell id="u2x9763HItPCIMWwYsHF-22" value="" style="group;strokeWidth=2;" parent="1" vertex="1" connectable="0">
          <mxGeometry x="198" y="31" width="200" height="250" as="geometry" />
        </mxCell>
        <mxCell id="u2x9763HItPCIMWwYsHF-23" value="" style="rounded=1;arcSize=12;whiteSpace=wrap;html=1;fillColor=light-dark(#deebf7, #1d293b);strokeColor=light-dark(#2a77bc, #5c79a3);strokeWidth=1.5;" parent="u2x9763HItPCIMWwYsHF-22" vertex="1">
          <mxGeometry x="10" width="190" height="200" as="geometry" />
        </mxCell>
        <mxCell id="u2x9763HItPCIMWwYsHF-24" value="" style="group;strokeWidth=1.5;" parent="u2x9763HItPCIMWwYsHF-22" vertex="1" connectable="0">
          <mxGeometry x="26.08695652173913" y="10" width="168.69565217391303" height="240" as="geometry" />
        </mxCell>
        <mxCell id="u2x9763HItPCIMWwYsHF-25" value="" style="group;strokeWidth=1.5;pointerEvents=0;align=center;verticalAlign=top;fontFamily=Helvetica;fontSize=12;fontColor=default;fillColor=default;gradientColor=none;" parent="u2x9763HItPCIMWwYsHF-24" vertex="1" connectable="0">
          <mxGeometry width="156.52173913043475" height="30" as="geometry" />
        </mxCell>
        <mxCell id="u2x9763HItPCIMWwYsHF-26" value="" style="verticalLabelPosition=bottom;verticalAlign=top;html=1;shape=mxgraph.basic.rect;fillColor2=none;strokeWidth=1.5;size=20;indent=5;strokeColor=light-dark(#2770b0, #ededed);align=center;fontFamily=Helvetica;fontSize=12;fontColor=default;fillColor=none;pointerEvents=0;gradientColor=none;" parent="u2x9763HItPCIMWwYsHF-25" vertex="1">
          <mxGeometry width="156.52173913043475" height="30" as="geometry" />
        </mxCell>
        <mxCell id="u2x9763HItPCIMWwYsHF-27" value="用户对话" style="text;html=1;align=center;verticalAlign=middle;whiteSpace=wrap;rounded=0;fontFamily=Helvetica;fontSize=12;fontColor=default;" parent="u2x9763HItPCIMWwYsHF-25" vertex="1">
          <mxGeometry y="7.5" width="156.52173913043475" height="15" as="geometry" />
        </mxCell>
        <mxCell id="u2x9763HItPCIMWwYsHF-28" value="" style="group;strokeWidth=1.5;" parent="u2x9763HItPCIMWwYsHF-24" vertex="1" connectable="0">
          <mxGeometry y="70" width="156.52173913043475" height="30" as="geometry" />
        </mxCell>
        <mxCell id="u2x9763HItPCIMWwYsHF-29" value="" style="verticalLabelPosition=bottom;verticalAlign=top;html=1;shape=mxgraph.basic.rect;fillColor2=none;strokeWidth=1.5;size=20;indent=5;strokeColor=light-dark(#2770b0, #ededed);align=center;fontFamily=Helvetica;fontSize=12;fontColor=default;fillColor=default;" parent="u2x9763HItPCIMWwYsHF-28" vertex="1">
          <mxGeometry width="156.52173913043475" height="30" as="geometry" />
        </mxCell>
        <mxCell id="u2x9763HItPCIMWwYsHF-30" value="历史对话" style="text;html=1;align=center;verticalAlign=middle;whiteSpace=wrap;rounded=0;" parent="u2x9763HItPCIMWwYsHF-28" vertex="1">
          <mxGeometry y="7.5" width="156.52173913043475" height="15" as="geometry" />
        </mxCell>
        <mxCell id="u2x9763HItPCIMWwYsHF-31" value="" style="group;strokeWidth=1.5;pointerEvents=0;align=center;verticalAlign=top;fontFamily=Helvetica;fontSize=12;fontColor=default;fillColor=default;gradientColor=none;" parent="u2x9763HItPCIMWwYsHF-24" vertex="1" connectable="0">
          <mxGeometry y="110" width="156.52173913043475" height="30" as="geometry" />
        </mxCell>
        <mxCell id="u2x9763HItPCIMWwYsHF-32" value="" style="verticalLabelPosition=bottom;verticalAlign=top;html=1;shape=mxgraph.basic.rect;fillColor2=none;strokeWidth=1.5;size=20;indent=5;strokeColor=light-dark(#2770b0, #ededed);align=center;fontFamily=Helvetica;fontSize=12;fontColor=default;fillColor=none;pointerEvents=0;gradientColor=none;" parent="u2x9763HItPCIMWwYsHF-31" vertex="1">
          <mxGeometry width="156.52173913043475" height="30" as="geometry" />
        </mxCell>
        <mxCell id="u2x9763HItPCIMWwYsHF-33" value="当前状态" style="text;html=1;align=center;verticalAlign=middle;whiteSpace=wrap;rounded=0;fontFamily=Helvetica;fontSize=12;fontColor=default;" parent="u2x9763HItPCIMWwYsHF-31" vertex="1">
          <mxGeometry y="7.5" width="156.52173913043475" height="15" as="geometry" />
        </mxCell>
        <mxCell id="u2x9763HItPCIMWwYsHF-34" value="" style="group;strokeWidth=1.5;pointerEvents=0;align=center;verticalAlign=top;fontFamily=Helvetica;fontSize=12;fontColor=default;fillColor=default;gradientColor=none;" parent="u2x9763HItPCIMWwYsHF-24" vertex="1" connectable="0">
          <mxGeometry y="150" width="156.52173913043475" height="30" as="geometry" />
        </mxCell>
        <mxCell id="u2x9763HItPCIMWwYsHF-35" value="" style="verticalLabelPosition=bottom;verticalAlign=top;html=1;shape=mxgraph.basic.rect;fillColor2=none;strokeWidth=1.5;size=20;indent=5;strokeColor=light-dark(#2770b0, #ededed);pointerEvents=0;align=center;fontFamily=Helvetica;fontSize=12;fontColor=default;fillColor=none;gradientColor=none;" parent="u2x9763HItPCIMWwYsHF-34" vertex="1">
          <mxGeometry width="156.52173913043475" height="30" as="geometry" />
        </mxCell>
        <mxCell id="u2x9763HItPCIMWwYsHF-36" value="环境信息" style="text;html=1;align=center;verticalAlign=middle;whiteSpace=wrap;rounded=0;fontFamily=Helvetica;fontSize=12;fontColor=default;" parent="u2x9763HItPCIMWwYsHF-34" vertex="1">
          <mxGeometry y="7.5" width="156.52173913043475" height="15" as="geometry" />
        </mxCell>
        <mxCell id="u2x9763HItPCIMWwYsHF-37" value="&lt;font face=&quot;Times New Roman&quot; style=&quot;font-size: 16px;&quot;&gt;&lt;b style=&quot;&quot;&gt;推理提示（Prompt）&lt;/b&gt;&lt;/font&gt;" style="text;html=1;align=center;verticalAlign=middle;resizable=0;points=[];autosize=1;strokeColor=none;fillColor=none;" parent="u2x9763HItPCIMWwYsHF-24" vertex="1">
          <mxGeometry x="-0.004347826086956941" y="189" width="170" height="30" as="geometry" />
        </mxCell>
        <mxCell id="u2x9763HItPCIMWwYsHF-38" value="" style="shape=cross;whiteSpace=wrap;html=1;fillColor=light-dark(#2a77bc, #ededed);strokeColor=light-dark(#2a77bc, #ededed);aspect=fixed;" parent="u2x9763HItPCIMWwYsHF-24" vertex="1">
          <mxGeometry x="68.2630434782609" y="39" width="20" height="20" as="geometry" />
        </mxCell>
        <mxCell id="u2x9763HItPCIMWwYsHF-39" value="" style="shape=singleArrow;whiteSpace=wrap;html=1;fillColor=light-dark(#eeeeee, #1a1a1a);strokeColor=#666666;gradientColor=none;arrowWidth=0.3645808942008484;arrowSize=0.31781094154144157;" parent="u2x9763HItPCIMWwYsHF-22" vertex="1">
          <mxGeometry x="-21" y="13" width="43" height="21" as="geometry" />
        </mxCell>
        <mxCell id="u2x9763HItPCIMWwYsHF-40" value="" style="group" parent="1" vertex="1" connectable="0">
          <mxGeometry x="72" y="1" width="140" height="100" as="geometry" />
        </mxCell>
        <mxCell id="u2x9763HItPCIMWwYsHF-41" value="" style="group" parent="u2x9763HItPCIMWwYsHF-40" vertex="1" connectable="0">
          <mxGeometry x="-50" width="190" height="90" as="geometry" />
        </mxCell>
        <mxCell id="u2x9763HItPCIMWwYsHF-42" value="" style="shape=actor;whiteSpace=wrap;html=1;" parent="u2x9763HItPCIMWwYsHF-41" vertex="1">
          <mxGeometry x="50" width="40" height="60" as="geometry" />
        </mxCell>
        <mxCell id="u2x9763HItPCIMWwYsHF-43" value="&lt;font style=&quot;font-size: 14px;&quot; face=&quot;Times New Roman&quot;&gt;I&#39;m sleepy&lt;/font&gt;" style="whiteSpace=wrap;html=1;shape=mxgraph.basic.roundRectCallout;dx=30;dy=15;size=5;boundedLbl=1;" parent="u2x9763HItPCIMWwYsHF-41" vertex="1">
          <mxGeometry x="93" width="73" height="60" as="geometry" />
        </mxCell>
        <mxCell id="u2x9763HItPCIMWwYsHF-44" value="&lt;font face=&quot;Times New Roman&quot;&gt;&lt;span style=&quot;font-size: 14px;&quot;&gt;&lt;b&gt;用户对话&lt;/b&gt;&lt;/span&gt;&lt;/font&gt;" style="text;html=1;align=center;verticalAlign=middle;resizable=0;points=[];autosize=1;strokeColor=none;fillColor=none;" parent="u2x9763HItPCIMWwYsHF-41" vertex="1">
          <mxGeometry x="70" y="60" width="80" height="30" as="geometry" />
        </mxCell>
        <mxCell id="u2x9763HItPCIMWwYsHF-45" style="edgeStyle=orthogonalEdgeStyle;rounded=1;orthogonalLoop=1;jettySize=auto;html=1;fillColor=#1ba1e2;strokeColor=light-dark(#164673, #51afe7);curved=0;textShadow=1;strokeWidth=2;" parent="1" edge="1">
          <mxGeometry relative="1" as="geometry">
            <mxPoint x="400" y="131" as="sourcePoint" />
            <mxPoint x="426" y="131" as="targetPoint" />
          </mxGeometry>
        </mxCell>
        <mxCell id="u2x9763HItPCIMWwYsHF-46" value="" style="group" parent="1" vertex="1" connectable="0">
          <mxGeometry x="1028" y="245" width="150" height="91" as="geometry" />
        </mxCell>
        <mxCell id="u2x9763HItPCIMWwYsHF-47" value="" style="rounded=1;arcSize=5;whiteSpace=wrap;html=1;fillColor=#d5e8d4;strokeColor=light-dark(#517f31, #446e2c);" parent="u2x9763HItPCIMWwYsHF-46" vertex="1">
          <mxGeometry x="5" y="-28" width="32" height="124" as="geometry" />
        </mxCell>
        <mxCell id="u2x9763HItPCIMWwYsHF-48" value="&lt;div&gt;&lt;font style=&quot;font-size: 15px;&quot; face=&quot;Times New Roman&quot;&gt;目&lt;/font&gt;&lt;/div&gt;&lt;div&gt;&lt;font style=&quot;font-size: 15px;&quot; face=&quot;Times New Roman&quot;&gt;标&lt;/font&gt;&lt;/div&gt;&lt;div&gt;&lt;font style=&quot;font-size: 15px;&quot; face=&quot;Times New Roman&quot;&gt;预&lt;/font&gt;&lt;/div&gt;&lt;div&gt;&lt;font style=&quot;font-size: 15px;&quot; face=&quot;Times New Roman&quot;&gt;测&lt;/font&gt;&lt;/div&gt;&lt;div&gt;&lt;font style=&quot;font-size: 15px;&quot; face=&quot;Times New Roman&quot;&gt;模&lt;/font&gt;&lt;/div&gt;&lt;div&gt;&lt;font style=&quot;font-size: 15px;&quot; face=&quot;Times New Roman&quot;&gt;块&lt;/font&gt;&lt;/div&gt;" style="text;html=1;align=center;verticalAlign=middle;resizable=0;points=[];autosize=1;strokeColor=none;fillColor=none;fontColor=light-dark(#548235, #69c195);fontStyle=1" parent="u2x9763HItPCIMWwYsHF-46" vertex="1">
          <mxGeometry x="4" y="-26.2" width="33" height="120" as="geometry" />
        </mxCell>
        <mxCell id="u2x9763HItPCIMWwYsHF-49" value="" style="group" parent="1" vertex="1" connectable="0">
          <mxGeometry x="858" y="130" width="150" height="130" as="geometry" />
        </mxCell>
        <mxCell id="u2x9763HItPCIMWwYsHF-50" value="" style="group" parent="u2x9763HItPCIMWwYsHF-49" vertex="1" connectable="0">
          <mxGeometry width="130.6451612903226" height="130" as="geometry" />
        </mxCell>
        <mxCell id="u2x9763HItPCIMWwYsHF-51" value="&lt;b&gt;&lt;font face=&quot;Times New Roman&quot;&gt;完成状态评估&lt;/font&gt;&lt;/b&gt;" style="text;html=1;align=center;verticalAlign=middle;resizable=0;points=[];autosize=1;strokeColor=none;fillColor=none;" parent="u2x9763HItPCIMWwYsHF-50" vertex="1">
          <mxGeometry x="15.161290322580644" y="100" width="100" height="30" as="geometry" />
        </mxCell>
        <mxCell id="u2x9763HItPCIMWwYsHF-52" value="&lt;div style=&quot;line-height: 100%;&quot;&gt;&lt;span style=&quot;background-color: transparent; color: light-dark(rgb(0, 0, 0), rgb(255, 255, 255)); font-family: &amp;quot;Times New Roman&amp;quot;;&quot;&gt;&amp;nbsp;&lt;/span&gt;&lt;span style=&quot;background-color: transparent; color: light-dark(rgb(0, 0, 0), rgb(255, 255, 255)); font-family: &amp;quot;Times New Roman&amp;quot;;&quot;&gt;&amp;nbsp;Human wants to have coffee&lt;/span&gt;&lt;/div&gt;&lt;div style=&quot;line-height: 100%;&quot;&gt;&lt;span style=&quot;font-family: &amp;quot;Times New Roman&amp;quot;; background-color: transparent; color: light-dark(rgb(0, 0, 0), rgb(255, 255, 255));&quot;&gt;&amp;nbsp; -Yes&lt;/span&gt;&lt;/div&gt;&lt;div style=&quot;line-height: 100%;&quot;&gt;&lt;span style=&quot;font-family: &amp;quot;Times New Roman&amp;quot;; background-color: transparent; color: light-dark(rgb(0, 0, 0), rgb(255, 255, 255));&quot;&gt;&amp;nbsp; -No&lt;/span&gt;&lt;/div&gt;" style="shape=note;whiteSpace=wrap;html=1;backgroundOutline=1;darkOpacity=0.05;align=left;size=9;fillColor=light-dark(#bdd7ee, #ededed);" parent="u2x9763HItPCIMWwYsHF-49" vertex="1">
          <mxGeometry y="30" width="150" height="70" as="geometry" />
        </mxCell>
        <mxCell id="u2x9763HItPCIMWwYsHF-53" style="edgeStyle=orthogonalEdgeStyle;rounded=1;orthogonalLoop=1;jettySize=auto;html=1;fillColor=#1ba1e2;strokeColor=light-dark(#164673, #51afe7);curved=0;textShadow=1;strokeWidth=2;" parent="1" edge="1">
          <mxGeometry relative="1" as="geometry">
            <mxPoint x="512" y="130" as="sourcePoint" />
            <mxPoint x="539" y="130" as="targetPoint" />
          </mxGeometry>
        </mxCell>
        <mxCell id="u2x9763HItPCIMWwYsHF-54" value="" style="group" parent="1" vertex="1" connectable="0">
          <mxGeometry x="423" y="80" width="95.43624161073825" height="165" as="geometry" />
        </mxCell>
        <mxCell id="u2x9763HItPCIMWwYsHF-55" value="" style="shape=image;html=1;verticalAlign=top;verticalLabelPosition=bottom;labelBackgroundColor=#ffffff;imageAspect=0;aspect=fixed;image=https://cdn0.iconfinder.com/data/icons/phosphor-light-vol-1/256/brain-light-128.png;imageBackground=none;imageBorder=none;" parent="u2x9763HItPCIMWwYsHF-54" vertex="1">
          <mxGeometry x="3.5" y="7.5" width="83" height="83" as="geometry" />
        </mxCell>
        <mxCell id="u2x9763HItPCIMWwYsHF-56" value="" style="group;fontStyle=0;strokeWidth=1;" parent="u2x9763HItPCIMWwYsHF-54" vertex="1" connectable="0">
          <mxGeometry width="95.43624161073825" height="165" as="geometry" />
        </mxCell>
        <mxCell id="u2x9763HItPCIMWwYsHF-57" value="&lt;font face=&quot;Times New Roman&quot;&gt;&lt;span style=&quot;font-size: 16px;&quot;&gt;&lt;b&gt;大语言模型&lt;/b&gt;&lt;/span&gt;&lt;/font&gt;&lt;br&gt;&lt;div&gt;&lt;font style=&quot;font-size: 16px;&quot; face=&quot;Times New Roman&quot;&gt;&lt;b style=&quot;&quot;&gt;GPT-4o&lt;/b&gt;&lt;/font&gt;&lt;/div&gt;" style="text;html=1;align=center;verticalAlign=middle;resizable=0;points=[];autosize=1;strokeColor=none;fillColor=none;" parent="u2x9763HItPCIMWwYsHF-56" vertex="1">
          <mxGeometry x="-4.563758389261745" y="90" width="100" height="50" as="geometry" />
        </mxCell>
        <mxCell id="u2x9763HItPCIMWwYsHF-58" value="" style="group" parent="1" vertex="1" connectable="0">
          <mxGeometry x="741" y="146.5" width="95.43624161073825" height="165" as="geometry" />
        </mxCell>
        <mxCell id="u2x9763HItPCIMWwYsHF-59" value="" style="shape=image;html=1;verticalAlign=top;verticalLabelPosition=bottom;labelBackgroundColor=#ffffff;imageAspect=0;aspect=fixed;image=https://cdn0.iconfinder.com/data/icons/phosphor-light-vol-1/256/brain-light-128.png;imageBackground=none;imageBorder=none;" parent="u2x9763HItPCIMWwYsHF-58" vertex="1">
          <mxGeometry x="3.5" y="7.5" width="83" height="83" as="geometry" />
        </mxCell>
        <mxCell id="u2x9763HItPCIMWwYsHF-60" value="" style="group;fontStyle=0;strokeWidth=1;" parent="u2x9763HItPCIMWwYsHF-58" vertex="1" connectable="0">
          <mxGeometry width="95.43624161073825" height="165" as="geometry" />
        </mxCell>
        <mxCell id="u2x9763HItPCIMWwYsHF-61" value="&lt;font style=&quot;font-size: 16px;&quot; face=&quot;Times New Roman&quot;&gt;&lt;b style=&quot;&quot;&gt;大语言模型&lt;/b&gt;&lt;/font&gt;&lt;div&gt;&lt;font style=&quot;font-size: 16px;&quot; face=&quot;Times New Roman&quot;&gt;&lt;b style=&quot;&quot;&gt;GPT-4o&lt;/b&gt;&lt;/font&gt;&lt;/div&gt;" style="text;html=1;align=center;verticalAlign=middle;resizable=0;points=[];autosize=1;strokeColor=none;fillColor=none;" parent="u2x9763HItPCIMWwYsHF-60" vertex="1">
          <mxGeometry x="-4.563758389261745" y="90" width="100" height="50" as="geometry" />
        </mxCell>
        <mxCell id="u2x9763HItPCIMWwYsHF-62" style="edgeStyle=orthogonalEdgeStyle;rounded=1;orthogonalLoop=1;jettySize=auto;html=1;fillColor=#1ba1e2;strokeColor=light-dark(#164673, #51afe7);curved=0;textShadow=1;strokeWidth=2;" parent="1" edge="1">
          <mxGeometry relative="1" as="geometry">
            <mxPoint x="716" y="195" as="sourcePoint" />
            <mxPoint x="746" y="195" as="targetPoint" />
          </mxGeometry>
        </mxCell>
        <mxCell id="u2x9763HItPCIMWwYsHF-63" style="edgeStyle=orthogonalEdgeStyle;rounded=1;orthogonalLoop=1;jettySize=auto;html=1;fillColor=#1ba1e2;strokeColor=light-dark(#164673, #51afe7);curved=0;textShadow=1;strokeWidth=2;" parent="1" edge="1">
          <mxGeometry relative="1" as="geometry">
            <mxPoint x="827" y="197" as="sourcePoint" />
            <mxPoint x="857" y="197" as="targetPoint" />
          </mxGeometry>
        </mxCell>
        <mxCell id="u2x9763HItPCIMWwYsHF-64" value="" style="curved=1;endArrow=classic;html=1;rounded=0;strokeWidth=2;strokeColor=light-dark(#164673, #ededed);" parent="1" edge="1">
          <mxGeometry width="50" height="50" relative="1" as="geometry">
            <mxPoint x="801" y="157" as="sourcePoint" />
            <mxPoint x="771" y="157" as="targetPoint" />
            <Array as="points">
              <mxPoint x="801" y="137" />
              <mxPoint x="771" y="137" />
            </Array>
          </mxGeometry>
        </mxCell>
        <mxCell id="u2x9763HItPCIMWwYsHF-65" value="" style="shape=flexArrow;endArrow=classic;html=1;rounded=0;fillColor=light-dark(#7193c2, #ededed);strokeColor=light-dark(#7193c2, #ededed);endWidth=8.85057471264368;endSize=3.724137931034483;pointerEvents=0;strokeWidth=1.5;align=center;verticalAlign=top;fontFamily=Helvetica;fontSize=12;fontColor=default;gradientColor=none;entryX=0;entryY=0.624;entryDx=0;entryDy=0;entryPerimeter=0;edgeStyle=orthogonalEdgeStyle;" parent="1" edge="1" target="u2x9763HItPCIMWwYsHF-48" source="u2x9763HItPCIMWwYsHF-51">
          <mxGeometry width="50" height="50" relative="1" as="geometry">
            <mxPoint x="924" y="255" as="sourcePoint" />
            <mxPoint x="1013" y="302" as="targetPoint" />
            <Array as="points">
              <mxPoint x="925" y="294" />
            </Array>
          </mxGeometry>
        </mxCell>
        <mxCell id="u2x9763HItPCIMWwYsHF-66" value="&lt;font style=&quot;color: light-dark(rgb(22, 70, 115), rgb(237, 237, 237)); font-size: 22px;&quot;&gt;&lt;b style=&quot;&quot;&gt;意图推理模块&lt;/b&gt;&lt;/font&gt;" style="text;html=1;align=center;verticalAlign=middle;whiteSpace=wrap;rounded=0;fontColor=light-dark(#2a77bc, #ededed);fontSize=14;" parent="1" vertex="1">
          <mxGeometry x="190" y="302" width="161" height="30" as="geometry" />
        </mxCell>
      </root>
    </mxGraphModel>
  </diagram>
</mxfile>
